<svg xmlns="http://www.w3.org/2000/svg" width="1784" height="686" viewBox="0 0 1784 686" fill="none">
<g clip-path="url(#clip0_244_3098)">
<path d="M-177.174 -949.603C-157.384 -952.186 -106.444 -951.67 -61.0116 -928.937C-4.2209 -900.521 79.6744 -965.103 123.558 -928.937C167.442 -892.772 231.977 -664.153 358.465 -782.983C484.954 -901.813 583.046 -1136.89 808.919 -1187.26C1034.79 -1237.64 1227.1 -1379.72 1329.07 -1462.38C1410.64 -1528.51 1462.87 -1621.68 1478.79 -1660M1243.88 -1576.04C1227.97 -1545.04 1189.42 -1471.16 1162.57 -1423.63C1129.01 -1364.22 1037.37 -1258.3 993.488 -1165.31C949.605 -1072.31 756 -861.772 699.209 -782.983C642.419 -704.193 535.291 -471.7 493.988 -401.952C452.686 -332.204 346.849 -159.125 213.907 -208.207C80.9651 -257.289 55.1511 -463.95 -28.7442 -523.365C-95.8605 -570.897 -227.081 -560.392 -284.302 -549.198M-190.081 -702.902C-177.174 -706.777 -73.9186 -763.608 -2.93024 -726.151C68.0581 -688.694 79.6744 -533.698 123.558 -507.866C167.442 -482.033 252.628 -496.241 305.547 -549.198C358.465 -602.155 437.198 -727.443 493.988 -795.899C550.779 -864.356 646.291 -985.769 727.605 -1037.43C808.919 -1089.1 983.163 -1176.93 1162.57 -1195.01C1341.98 -1213.1 1601.41 -1502.42 1642.71 -1623.83M1690.47 -1501.13C1621.63 -1411.58 1474.4 -1223.43 1436.2 -1187.26C1388.44 -1142.06 1298.09 -1094.27 1179.35 -1059.39C1060.6 -1024.52 709.535 -241.79 540.453 -161.709C371.372 -81.6276 233.267 -5.42142 42.2442 -152.667C-110.574 -270.464 -245.151 -326.607 -293.337 -339.954M-190.081 -135.876C-116.512 -93.2522 52.8279 -1.80476 141.628 22.9946C252.628 53.9937 370.081 47.5355 455.267 22.9946C540.454 -1.54643 683.721 -113.918 735.349 -200.458C786.977 -286.997 859.256 -425.201 926.372 -487.199C993.488 -549.198 1060.6 -611.196 1092.87 -664.153C1125.14 -717.11 1153.53 -722.276 1203.87 -782.983C1254.21 -843.69 1419.42 -869.522 1452.98 -894.063C1486.53 -918.604 1651.74 -1104.6 1721.44 -1149.81M1740.8 -1074.89C1721.44 -1059.39 1543.33 -899.23 1436.2 -823.023C1329.07 -746.817 1225.81 -675.778 1189.67 -634.445C1153.53 -593.113 1087.71 -589.238 1054.15 -559.531C1020.59 -529.823 928.954 -426.493 904.43 -377.411C879.907 -328.329 817.954 -183.666 758.581 -111.335C699.209 -39.0037 552.07 153.449 455.267 208.989C358.465 264.529 219.07 343.319 -98.4419 109.534C-352.451 -77.4944 -522.651 -149.223 -576 -161.709M-240.419 389.818C-150.07 428.136 55.4093 499.864 154.535 480.232C278.442 455.691 367.5 420.817 540.453 422.108C713.407 423.4 847.64 409.192 950.895 278.737C1054.15 148.283 1077.38 59.1602 1250.34 -6.71297C1423.29 -72.5861 1600.12 -156.542 1681.43 -339.954M1740.8 -200.458C1663.79 -129.848 1495.05 25.836 1436.2 83.7011C1362.63 156.032 1206.45 349.777 1072.22 422.108C937.988 494.44 860.547 498.315 590.791 480.232C321.035 462.149 277.151 626.186 -284.302 560.313M1866 -664.153C1553.65 -603.446 1449.1 -502.699 1270.99 -339.954C1092.87 -177.208 825.698 -27.3791 735.349 109.534C645 246.447 526.256 373.026 213.907 389.818C-35.9721 403.251 -257.628 251.613 -337.221 174.115" stroke="#696E77" stroke-opacity="1"/>
</g>
<defs>
<clipPath id="clip0_244_3098">
<rect width="1784" height="686" fill="white"/>
</clipPath>
</defs>
</svg>